<?xml version="1.0" encoding="UTF-8"?>
<!DOCTYPE svg PUBLIC "-//W3C//DTD SVG 1.1//EN" "http://www.w3.org/Graphics/SVG/1.1/DTD/svg11.dtd">
<svg xmlns="http://www.w3.org/2000/svg" version="1.1" width="389px" height="110px" style="shape-rendering:geometricPrecision; text-rendering:geometricPrecision; image-rendering:optimizeQuality; fill-rule:evenodd; clip-rule:evenodd" xmlns:xlink="http://www.w3.org/1999/xlink">
<g><path style="opacity:1" fill="#efefee" d="M -0.5,-0.5 C 129.167,-0.5 258.833,-0.5 388.5,-0.5C 388.5,36.1667 388.5,72.8333 388.5,109.5C 258.833,109.5 129.167,109.5 -0.5,109.5C -0.5,72.8333 -0.5,36.1667 -0.5,-0.5 Z"/></g>
<g><path style="opacity:1" fill="#a9cc57" d="M 71.5,20.5 C 73.1437,25.5896 74.1437,30.923 74.5,36.5C 74.5,37.1667 74.5,37.8333 74.5,38.5C 73.8333,38.5 73.1667,38.5 72.5,38.5C 72.5858,37.5041 72.2524,36.6708 71.5,36C 67.5796,32.8893 63.5796,30.056 59.5,27.5C 63.4645,25.1816 67.4645,22.8483 71.5,20.5 Z"/></g>
<g><path style="opacity:1" fill="#c3d864" d="M 71.5,20.5 C 72.2506,19.4265 73.2506,19.2599 74.5,20C 78.7324,22.2746 82.7324,24.7746 86.5,27.5C 82.5,30.5 78.5,33.5 74.5,36.5C 74.1437,30.923 73.1437,25.5896 71.5,20.5 Z"/></g>
<g><path style="opacity:1" fill="#90c35b" d="M 59.5,27.5 C 59.5,33.5 59.5,39.5 59.5,45.5C 54.2985,42.737 49.2985,39.737 44.5,36.5C 48.9946,32.7487 53.9946,29.7487 59.5,27.5 Z"/></g>
<g><path style="opacity:1" fill="#73b845" d="M 88.5,28.5 C 92.674,31.0877 97.0074,33.421 101.5,35.5C 101.586,36.4959 101.252,37.3292 100.5,38C 96.1392,40.5117 91.8059,43.0117 87.5,45.5C 87.1778,39.642 87.5111,33.9753 88.5,28.5 Z"/></g>
<g><path style="opacity:1" fill="#b8d13e" d="M 59.5,27.5 C 63.5796,30.056 67.5796,32.8893 71.5,36C 72.2524,36.6708 72.5858,37.5041 72.5,38.5C 68.4016,41.264 64.0683,43.5973 59.5,45.5C 59.5,39.5 59.5,33.5 59.5,27.5 Z"/></g>
<g><path style="opacity:1" fill="#9dc641" d="M 86.5,27.5 C 87.4916,27.3284 88.1583,27.6618 88.5,28.5C 87.5111,33.9753 87.1778,39.642 87.5,45.5C 82.9317,43.5973 78.5984,41.264 74.5,38.5C 74.5,37.8333 74.5,37.1667 74.5,36.5C 78.5,33.5 82.5,30.5 86.5,27.5 Z"/></g>
<g><path style="opacity:1" fill="#a1cb72" d="M 44.5,36.5 C 49.2985,39.737 54.2985,42.737 59.5,45.5C 59.5,45.8333 59.5,46.1667 59.5,46.5C 54.0157,48.4068 49.0157,51.0734 44.5,54.5C 44.1667,54.5 43.8333,54.5 43.5,54.5C 43.1771,48.31 43.5104,42.31 44.5,36.5 Z"/></g>
<g><path style="opacity:1" fill="#8ac155" d="M 101.5,35.5 C 102.117,35.6107 102.617,35.944 103,36.5C 103.499,42.1569 103.666,47.8236 103.5,53.5C 97.9426,51.7223 92.6093,49.389 87.5,46.5C 87.5,46.1667 87.5,45.8333 87.5,45.5C 91.8059,43.0117 96.1392,40.5117 100.5,38C 101.252,37.3292 101.586,36.4959 101.5,35.5 Z"/></g>
<g><path style="opacity:1" fill="#e9eceb" d="M 72.5,38.5 C 73.1667,38.5 73.8333,38.5 74.5,38.5C 78.5984,41.264 82.9317,43.5973 87.5,45.5C 87.5,45.8333 87.5,46.1667 87.5,46.5C 87.5,51.5 87.5,56.5 87.5,61.5C 82.8333,64.1667 78.1667,66.8333 73.5,69.5C 68.8333,66.8333 64.1667,64.1667 59.5,61.5C 59.5,56.5 59.5,51.5 59.5,46.5C 59.5,46.1667 59.5,45.8333 59.5,45.5C 64.0683,43.5973 68.4016,41.264 72.5,38.5 Z"/></g>
<g><path style="opacity:1" fill="#363537" d="M 120.5,42.5 C 127.5,42.5 134.5,42.5 141.5,42.5C 141.657,43.8734 141.49,45.2068 141,46.5C 139.195,43.9607 136.695,42.9607 133.5,43.5C 133.334,50.5079 133.5,57.5079 134,64.5C 135.067,65.1905 136.234,65.6905 137.5,66C 133.167,66.6667 128.833,66.6667 124.5,66C 125.766,65.6905 126.933,65.1905 128,64.5C 128.5,57.5079 128.666,50.5079 128.5,43.5C 124.243,42.5971 121.743,44.2637 121,48.5C 120.505,46.5273 120.338,44.5273 120.5,42.5 Z"/></g>
<g><path style="opacity:1" fill="#343334" d="M 152.5,52.5 C 151.31,54.5533 150.643,56.8866 150.5,59.5C 150.59,61.9637 151.257,64.1303 152.5,66C 149.833,66.6667 147.167,66.6667 144.5,66C 145.792,62.4288 146.458,58.5955 146.5,54.5C 146.458,50.4045 145.792,46.5712 144.5,43C 146.473,42.5045 148.473,42.3379 150.5,42.5C 149.931,46.3293 150.598,49.6627 152.5,52.5 Z"/></g>
<g><path style="opacity:1" fill="#343435" d="M 179.5,43.5 C 185.376,42.0365 188.376,42.0365 188.5,43.5C 188.5,46.8333 188.5,50.1667 188.5,53.5C 191.5,53.5 194.5,53.5 197.5,53.5C 197.5,50.1667 197.5,46.8333 197.5,43.5C 198.31,42.2481 201.31,42.0815 206.5,43C 205.234,43.3095 204.067,43.8095 203,44.5C 202.333,51.1667 202.333,57.8333 203,64.5C 204.067,65.1905 205.234,65.6905 206.5,66C 201.31,66.9185 198.31,66.7519 197.5,65.5C 197.5,61.8333 197.5,58.1667 197.5,54.5C 194.5,54.5 191.5,54.5 188.5,54.5C 188.5,58.1667 188.5,61.8333 188.5,65.5C 188.671,66.9366 185.671,67.1033 179.5,66C 180.766,65.6905 181.933,65.1905 183,64.5C 183.667,57.8333 183.667,51.1667 183,44.5C 181.989,43.6634 180.822,43.33 179.5,43.5 Z"/></g>
<g><path style="opacity:1" fill="#3b373b" d="M 281.5,43.5 C 286.985,42.3483 292.651,42.1816 298.5,43C 303.975,47.0072 303.642,50.6739 297.5,54C 302.223,55.0427 304.056,57.876 303,62.5C 299.211,65.9117 294.711,67.245 289.5,66.5C 286.833,66.3333 284.167,66.1667 281.5,66C 282.766,65.6905 283.933,65.1905 285,64.5C 285.5,57.5079 285.666,50.5079 285.5,43.5C 284.167,43.5 282.833,43.5 281.5,43.5 Z"/></g>
<g><path style="opacity:1" fill="#493c3e" d="M 210.5,42.5 C 214.161,42.3501 215.161,43.8501 213.5,47C 209.707,47.4866 208.707,45.9866 210.5,42.5 Z"/></g>
<g><path style="opacity:1" fill="#493c3e" d="M 236.5,42.5 C 240.161,42.3501 241.161,43.8501 239.5,47C 235.707,47.4866 234.707,45.9866 236.5,42.5 Z"/></g>
<g><path style="opacity:1" fill="#e4e3dd" d="M 290.5,43.5 C 297.803,44.2666 299.136,47.4332 294.5,53C 293.207,53.49 291.873,53.6567 290.5,53.5C 290.5,50.1667 290.5,46.8333 290.5,43.5 Z"/></g>
<g><path style="opacity:1" fill="#69b76b" d="M 59.5,46.5 C 59.5,51.5 59.5,56.5 59.5,61.5C 54.5162,59.0139 49.5162,56.6805 44.5,54.5C 49.0157,51.0734 54.0157,48.4068 59.5,46.5 Z"/></g>
<g><path style="opacity:1" fill="#0ca96e" d="M 87.5,46.5 C 92.6093,49.389 97.9426,51.7223 103.5,53.5C 103.5,53.8333 103.5,54.1667 103.5,54.5C 103.167,54.5 102.833,54.5 102.5,54.5C 97.3069,56.3445 92.3069,58.6779 87.5,61.5C 87.5,56.5 87.5,51.5 87.5,46.5 Z"/></g>
<g><path style="opacity:1" fill="#3a3c44" d="M 152.5,52.5 C 154.799,49.9979 157.299,49.9979 160,52.5C 160.197,57.0855 160.697,61.5855 161.5,66C 158.833,66.6667 156.167,66.6667 153.5,66C 155.399,61.8222 156.065,57.3222 155.5,52.5C 154.5,52.5 153.5,52.5 152.5,52.5 Z"/></g>
<g><path style="opacity:1" fill="#343333" d="M 208.5,51.5 C 210.265,50.5386 212.265,50.2053 214.5,50.5C 213.919,55.9752 214.586,61.1418 216.5,66C 213.833,66.6667 211.167,66.6667 208.5,66C 209,65.5 209.5,65 210,64.5C 210.167,62.3333 210.333,60.1667 210.5,58C 210.467,55.3897 209.8,53.223 208.5,51.5 Z"/></g>
<g><path style="opacity:1" fill="#3a3d45" d="M 218.5,51.5 C 220.607,50.5318 222.941,50.1984 225.5,50.5C 224.919,55.9752 225.586,61.1418 227.5,66C 224.5,66.6667 221.5,66.6667 218.5,66C 219.76,63.7875 220.426,61.2875 220.5,58.5C 220.471,55.7305 219.805,53.3972 218.5,51.5 Z"/></g>
<g><path style="opacity:1" fill="#343333" d="M 234.5,51.5 C 236.265,50.5386 238.265,50.2053 240.5,50.5C 239.919,55.9752 240.586,61.1418 242.5,66C 239.833,66.6667 237.167,66.6667 234.5,66C 235,65.5 235.5,65 236,64.5C 236.167,62.3333 236.333,60.1667 236.5,58C 236.467,55.3897 235.8,53.223 234.5,51.5 Z"/></g>
<g><path style="opacity:1" fill="#353435" d="M 244.5,51.5 C 246.863,49.9983 249.03,50.3316 251,52.5C 253.747,49.9659 256.413,49.9659 259,52.5C 258.928,57.3082 259.761,61.8082 261.5,66C 258.833,66.6667 256.167,66.6667 253.5,66C 255.399,61.8222 256.065,57.3222 255.5,52.5C 254.07,52.4208 252.736,52.7542 251.5,53.5C 251.167,55.5 250.833,57.5 250.5,59.5C 250.59,61.9637 251.257,64.1303 252.5,66C 249.833,66.6667 247.167,66.6667 244.5,66C 245.76,63.7875 246.426,61.2875 246.5,58.5C 246.471,55.7305 245.805,53.3972 244.5,51.5 Z"/></g>
<g><path style="opacity:1" fill="#403c3f" d="M 324.5,51.5 C 326.607,50.5318 328.941,50.1984 331.5,50.5C 333.29,56.2309 336.29,61.3976 340.5,66C 337.5,66.6667 334.5,66.6667 331.5,66C 332.517,64.9505 332.684,63.7839 332,62.5C 329.937,60.2698 328.604,57.6031 328,54.5C 326.961,53.2899 325.794,52.2899 324.5,51.5 Z"/></g>
<g><path style="opacity:1" fill="#37343c" d="M 333.5,51.5 C 335.288,50.3775 337.288,50.2109 339.5,51C 338.069,51.4652 336.903,52.2986 336,53.5C 335.583,52.244 334.75,51.5774 333.5,51.5 Z"/></g>
<g><path style="opacity:1" fill="#1a6763" d="M 82.5,50.5 C 83.7647,51.5145 84.4313,53.0145 84.5,55C 84.3333,56.5 84.1667,58 84,59.5C 81.1651,60.9164 78.4985,62.583 76,64.5C 75.3333,61.1667 75.3333,57.8333 76,54.5C 78.1731,53.0672 80.3398,51.7339 82.5,50.5 Z"/></g>
<g><path style="opacity:1" fill="#443d49" d="M 228.5,50.5 C 232.161,50.3501 233.161,51.8501 231.5,55C 229.813,54.8073 228.479,53.8073 227.5,52C 228.056,51.6174 228.389,51.1174 228.5,50.5 Z"/></g>
<g><path style="opacity:1" fill="#433c41" d="M 273.5,61.5 C 272.081,62.4511 270.415,62.7845 268.5,62.5C 265.147,60.4468 263.98,57.4468 265,53.5C 265.903,52.2986 267.069,51.4652 268.5,51C 272.541,50.1735 276.541,50.3401 280.5,51.5C 279.624,52.2508 278.624,52.7508 277.5,53C 279.717,57.7012 278.383,60.5345 273.5,61.5 Z"/></g>
<g><path style="opacity:1" fill="#4c3f43" d="M 310.5,50.5 C 318.709,49.8724 322.209,53.5391 321,61.5C 316.748,67.6531 312.081,67.9865 307,62.5C 305.593,57.6427 306.76,53.6427 310.5,50.5 Z"/></g>
<g><path style="opacity:1" fill="#e7ebe6" d="M 312.5,51.5 C 313.822,51.33 314.989,51.6634 316,52.5C 316.667,56.5 316.667,60.5 316,64.5C 314.667,65.8333 313.333,65.8333 312,64.5C 311.232,60.0804 311.398,55.7471 312.5,51.5 Z"/></g>
<g><path style="opacity:1" fill="#484044" d="M 173.5,51.5 C 176.987,52.4446 178.32,54.7779 177.5,58.5C 174.833,58.5 172.167,58.5 169.5,58.5C 169.342,62.6961 171.342,64.8628 175.5,65C 166.941,67.1112 163.441,63.6112 165,54.5C 167.3,51.2376 170.133,50.2376 173.5,51.5 Z"/></g>
<g><path style="opacity:1" fill="#e9ebe7" d="M 173.5,51.5 C 173.5,53.5 173.5,55.5 173.5,57.5C 172.167,57.5 170.833,57.5 169.5,57.5C 168.599,53.7593 169.932,51.7593 173.5,51.5 Z"/></g>
<g><path style="opacity:1" fill="#e4dcd1" d="M 273.5,61.5 C 272.178,61.67 271.011,61.3366 270,60.5C 269.333,57.8333 269.333,55.1667 270,52.5C 271.333,51.1667 272.667,51.1667 274,52.5C 274.736,55.592 274.569,58.592 273.5,61.5 Z"/></g>
<g><path style="opacity:1" fill="#e4e6e4" d="M 290.5,54.5 C 294.865,53.9928 297.198,55.8261 297.5,60C 297.418,64.5748 295.085,66.4081 290.5,65.5C 290.5,61.8333 290.5,58.1667 290.5,54.5 Z"/></g>
<g><path style="opacity:1" fill="#48a786" d="M 43.5,54.5 C 43.8333,54.5 44.1667,54.5 44.5,54.5C 49.5162,56.6805 54.5162,59.0139 59.5,61.5C 59.5,61.8333 59.5,62.1667 59.5,62.5C 53.9946,64.7487 48.9946,67.7487 44.5,71.5C 43.5111,66.0247 43.1778,60.358 43.5,54.5 Z"/></g>
<g><path style="opacity:1" fill="#00958f" d="M 102.5,54.5 C 102.666,59.8437 102.499,65.1771 102,70.5C 97.2597,67.5763 92.4264,64.9096 87.5,62.5C 87.5,62.1667 87.5,61.8333 87.5,61.5C 92.3069,58.6779 97.3069,56.3445 102.5,54.5 Z"/></g>
<g><path style="opacity:1" fill="#19afa3" d="M 59.5,62.5 C 59.5,68.5 59.5,74.5 59.5,80.5C 54.2156,77.8627 49.2156,74.8627 44.5,71.5C 48.9946,67.7487 53.9946,64.7487 59.5,62.5 Z"/></g>
<g><path style="opacity:1" fill="#0a8a8d" d="M 59.5,61.5 C 64.1667,64.1667 68.8333,66.8333 73.5,69.5C 73.5,69.8333 73.5,70.1667 73.5,70.5C 68.617,73.1094 64.2837,76.4427 60.5,80.5C 60.1667,80.5 59.8333,80.5 59.5,80.5C 59.5,74.5 59.5,68.5 59.5,62.5C 59.5,62.1667 59.5,61.8333 59.5,61.5 Z"/></g>
<g><path style="opacity:1" fill="#1d899f" d="M 87.5,61.5 C 87.5,61.8333 87.5,62.1667 87.5,62.5C 87.5,68.1667 87.5,73.8333 87.5,79.5C 87.5,80.1667 87.1667,80.5 86.5,80.5C 82.3857,76.9358 78.0524,73.6025 73.5,70.5C 73.5,70.1667 73.5,69.8333 73.5,69.5C 78.1667,66.8333 82.8333,64.1667 87.5,61.5 Z"/></g>
<g><path style="opacity:1" fill="#14a2aa" d="M 102.5,54.5 C 102.833,54.5 103.167,54.5 103.5,54.5C 103.666,60.1764 103.499,65.8431 103,71.5C 98.1715,74.8301 93.0049,77.4967 87.5,79.5C 87.5,73.8333 87.5,68.1667 87.5,62.5C 92.4264,64.9096 97.2597,67.5763 102,70.5C 102.499,65.1771 102.666,59.8437 102.5,54.5 Z"/></g>
<g><path style="opacity:1" fill="#413f45" d="M 268.5,62.5 C 268.5,63.5 268.5,64.5 268.5,65.5C 272.273,65.2633 275.94,65.7633 279.5,67C 281.084,69.8249 280.418,71.9916 277.5,73.5C 277.094,72.4425 277.094,71.1092 277.5,69.5C 274.167,69.5 270.833,69.5 267.5,69.5C 267.33,70.8221 267.663,71.9887 268.5,73C 264.357,73.3802 263.69,72.0469 266.5,69C 265.424,67.2739 265.257,65.4406 266,63.5C 266.671,62.7476 267.504,62.4142 268.5,62.5 Z"/></g>
<g><path style="opacity:1" fill="#393844" d="M 327.5,63.5 C 331.073,66.4029 330.073,67.2363 324.5,66C 325.942,65.6232 326.942,64.7899 327.5,63.5 Z"/></g>
<g><path style="opacity:1" fill="#0b747b" d="M 73.5,70.5 C 73.1778,76.358 73.5111,82.0247 74.5,87.5C 74.44,88.0431 74.1067,88.3764 73.5,88.5C 68.9355,86.0588 64.6021,83.3921 60.5,80.5C 64.2837,76.4427 68.617,73.1094 73.5,70.5 Z"/></g>
<g><path style="opacity:1" fill="#046881" d="M 73.5,70.5 C 78.0524,73.6025 82.3857,76.9358 86.5,80.5C 82.5,82.8333 78.5,85.1667 74.5,87.5C 73.5111,82.0247 73.1778,76.358 73.5,70.5 Z"/></g>
</svg>
